HIERARCHY
ROOT hip
{
	OFFSET 0.000000 0.000000 0.000000 
	CHANNELS 6 Xposition Yposition Zposition Xrotation Zrotation Yrotation
	JOINT abdomen
	{
		OFFSET 0.000000 3.402643 0.000000 
		CHANNELS 3 Xrotation Zrotation Yrotation
		JOINT chest
		{
			OFFSET 0.000000 8.438565 -0.680529 
			CHANNELS 3 Xrotation Zrotation Yrotation
			JOINT neck
			{
				OFFSET 0.000000 10.207942 -0.272212 
				CHANNELS 3 Xrotation Zrotation Yrotation
				JOINT head
				{
					OFFSET 0.000000 3.130431 0.000000 
					CHANNELS 3 Xrotation Zrotation Yrotation
					End Site
					{
						OFFSET 0.000000 3.130435 0.000000 
					}
				}
			}
			JOINT lCollar
			{
				OFFSET 3.470700 6.669187 -0.816635 
				CHANNELS 3 Yrotation Zrotation Xrotation
				JOINT lShldr
				{
					OFFSET 3.198488 0.000000 0.000000 
					CHANNELS 3 Zrotation Yrotation Xrotation
					JOINT lForeArm
					{
						OFFSET 10.139888 0.000000 0.000000 
						CHANNELS 3 Yrotation Zrotation Xrotation
						JOINT lHand
						{
							OFFSET 8.370511 0.000000 0.000000 
							CHANNELS 3 Zrotation Yrotation Xrotation
							End Site
							{
								OFFSET 4.083176 0.000000 0.000000 
							}
						}
					}
				}
			}
			JOINT rCollar
			{
				OFFSET -3.470700 6.669187 -0.816635 
				CHANNELS 3 Yrotation Zrotation Xrotation
				JOINT rShldr
				{
					OFFSET -3.198488 0.000000 0.000000 
					CHANNELS 3 Zrotation Yrotation Xrotation
					JOINT rForeArm
					{
						OFFSET -10.139888 0.000000 0.000000 
						CHANNELS 3 Yrotation Zrotation Xrotation
						JOINT rHand
						{
							OFFSET -8.370511 0.000000 0.000000 
							CHANNELS 3 Zrotation Yrotation Xrotation
							End Site
							{
								OFFSET -4.083176 0.000000 0.000000 
							}
						}
					}
				}
			}
		}
	}
	JOINT lThigh
	{
		OFFSET 5.308129 -1.633274 1.361059 
		CHANNELS 3 Xrotation Zrotation Yrotation
		JOINT lShin
		{
			OFFSET -2.041588 -20.007561 0.000000 
			CHANNELS 3 Xrotation Zrotation Yrotation
			JOINT lFoot
			{
				OFFSET 0.000000 -19.190928 -1.224953 
				CHANNELS 3 Xrotation Yrotation Zrotation
				End Site
				{
					OFFSET 0.000000 -2.449906 4.627600 
				}
			}
		}
	}
	JOINT rThigh
	{
		OFFSET -5.308129 -1.633274 1.361059 
		CHANNELS 3 Xrotation Zrotation Yrotation
		JOINT rShin
		{
			OFFSET 2.041588 -20.007561 0.000000 
			CHANNELS 3 Xrotation Zrotation Yrotation
			JOINT rFoot
			{
				OFFSET 0.000000 -19.190928 -1.224953 
				CHANNELS 3 Xrotation Yrotation Zrotation
				End Site
				{
					OFFSET 0.000000 -2.449906 4.627600 
				}
			}
		}
	}
}
MOTION
Frames: 16
Frame Time: 0.016667
-0.028326 49.160336 -0.016995 -13.524491 0.048820 1.054695 5.019107 -0.166015 0.146484 19.125170 1.257588 -3.369828 39.290100 0.947180 0.771702 -27.912170 -3.886153 -0.978950 -11.603209 -15.499171 -3.125880 -34.481636 11.753007 69.754242 -83.528999 -0.441204 2.905355 1.644208 -3.403038 -3.510995 12.669943 11.787463 -2.634680 36.339718 -25.879190 61.671211 93.878563 1.359885 -13.141586 -1.662539 3.382353 -3.511080 21.482061 13.523186 0.720405 -3.585246 -0.803817 30.590723 4.381411 1.937324 -3.858759 21.841139 -8.445171 -0.502575 -8.112846 4.191106 -30.921820 0.610803 2.834510 -7.148467 
-0.056651 49.177330 -0.033990 -13.097724 0.322173 1.376986 5.019107 -0.166015 0.146484 18.810867 1.170010 -3.232944 39.341179 0.615212 0.488358 -27.655840 -3.867074 -0.441087 -11.607526 -15.526460 -3.135096 -33.901081 11.800159 70.084198 -83.901855 -0.447459 2.965902 1.644208 -3.403038 -3.510995 12.323874 11.715487 -2.538382 36.557076 -26.413885 61.294273 93.738991 1.357250 -13.116935 -1.662539 3.382353 -3.511080 20.739351 13.737850 0.718184 -3.195469 -1.358864 29.829964 4.319475 1.961473 -3.850507 21.532108 -8.563714 -0.482082 -8.215446 4.123353 -31.314713 0.619193 2.793596 -7.142894 
-0.062317 49.205662 -0.039656 -12.765097 0.770981 2.070519 5.019107 -0.166015 0.146484 18.612770 1.043249 -3.242716 39.211681 0.439445 0.351627 -27.282000 -3.984354 -0.186456 -11.711594 -15.495882 -3.164369 -33.378208 11.912618 70.214867 -84.008347 -0.439593 2.982422 1.644208 -3.403038 -3.510995 11.853142 11.604530 -2.414693 36.876820 -27.251240 60.534466 93.275307 1.351988 -13.117082 -1.662539 3.382353 -3.511080 19.845438 14.008450 0.739964 -2.457406 -2.215890 28.166033 4.080277 1.926199 -3.892160 21.471979 -8.826005 -0.509907 -8.499703 4.085745 -32.133320 0.675967 2.806551 -7.138218 
-0.067982 49.233990 -0.045321 -12.431575 1.219293 2.754737 5.019107 -0.166015 0.146484 18.405109 0.916499 -3.242553 39.082973 0.263670 0.205121 -26.918285 -4.121091 0.058442 -11.823263 -15.476432 -3.181692 -32.859043 12.026165 70.339035 -84.124374 -0.441932 2.995803 1.644208 -3.403038 -3.510995 11.385192 11.499448 -2.299849 37.213581 -28.091358 59.762802 92.812363 1.346517 -13.121579 -1.662539 3.382353 -3.511080 18.972883 14.294724 0.769473 -1.686959 -3.045592 26.479439 3.848103 1.897143 -3.901417 21.419350 -9.088209 -0.537884 -8.786031 4.036638 -32.950829 0.735015 2.820016 -7.154115 
-0.022658 49.284977 -0.084979 -12.208100 1.909920 3.771666 5.019107 -0.166015 0.146484 18.464405 0.682336 -3.476781 38.906364 0.097656 0.068376 -26.480890 -4.199139 0.352049 -12.023071 -15.295669 -3.197978 -32.553020 12.165208 69.902420 -83.781403 -0.445724 2.940242 1.644208 -3.403038 -3.510995 11.020633 11.281213 -2.183779 37.776886 -29.214314 58.258713 91.893639 1.343410 -13.202337 -1.662539 3.382353 -3.511080 17.816925 14.497771 0.781318 -0.302364 -4.081033 23.510015 3.442883 1.909070 -3.885362 21.576551 -9.576864 -0.566048 -9.113126 4.055988 -34.157490 0.789009 2.784135 -7.146346 
0.022665 49.335964 -0.124639 -11.970657 2.588596 4.790406 5.019107 -0.166015 0.146484 18.515848 0.448277 -3.710977 38.730560 -0.078125 -0.068373 -26.053553 -4.296611 0.635908 -12.223330 -15.124525 -3.211649 -32.242542 12.311596 69.462303 -83.435127 -0.449614 2.887368 1.644208 -3.403038 -3.510995 10.659197 11.069530 -2.076805 38.371052 -30.321037 56.723240 90.976036 1.351263 -13.278823 -1.662539 3.382353 -3.511080 16.664539 14.702754 0.788775 1.134357 -5.040216 20.513481 3.031799 1.953255 -3.868421 21.740450 -10.063970 -0.625962 -9.475791 4.057436 -35.374996 0.871448 2.820607 -7.133207 
0.101978 49.409615 -0.215282 -11.657474 3.341687 5.889368 5.019107 -0.166015 0.146484 18.680363 0.155859 -4.052746 38.594662 -0.253905 -0.205119 -25.541788 -4.276721 0.978941 -12.359907 -14.835432 -3.195705 -32.139755 12.392988 68.227791 -82.424309 -0.454420 2.723570 1.644208 -3.403038 -3.510995 10.490552 10.711573 -1.977816 39.175323 -31.495054 54.423668 89.445778 1.354551 -13.481773 -1.662539 3.382353 -3.511080 15.161498 14.800779 0.788509 3.044825 -5.958971 16.867821 2.503148 1.917171 -3.868652 21.772318 -10.631414 -0.654850 -9.724962 4.066092 -36.691620 0.919760 2.832327 -7.139383 
0.181291 49.483257 -0.305925 -11.324339 4.090477 7.000769 5.019107 -0.166015 0.146484 18.838625 -0.136315 -4.404331 38.449963 -0.439445 -0.351627 -25.029507 -4.276226 1.312232 -12.494731 -14.558249 -3.170601 -32.041351 12.486743 66.999290 -81.424309 -0.462679 2.555436 1.644208 -3.403038 -3.510995 10.323180 10.353081 -1.878779 40.034576 -32.647884 52.086895 87.917786 1.362893 -13.673471 -1.662539 3.382353 -3.511080 13.647759 14.906497 0.786897 5.037913 -6.765069 13.170044 1.950037 1.894899 -3.863987 21.815300 -11.199582 -0.684413 -9.977655 4.066603 -38.017456 0.987548 2.845977 -7.144877 
0.266269 49.545578 -0.385237 -11.009512 4.595632 7.828351 5.019107 -0.166015 0.146484 18.991581 -0.330953 -4.619233 38.393646 -0.595682 -0.478591 -24.484121 -4.168230 1.635062 -12.193089 -14.296391 -3.041076 -32.019604 12.468572 65.146019 -79.659264 -0.477905 2.272983 1.644208 -3.403038 -3.510995 10.317870 9.974288 -1.807259 40.972500 -33.690315 49.240780 85.625618 1.374792 -13.940353 -1.662539 3.382353 -3.511080 12.419380 15.211185 0.825154 6.843121 -7.505669 10.346509 1.403750 1.914477 -3.885980 21.724997 -11.618405 -0.702185 -10.071164 4.027562 -38.976421 1.016660 2.854713 -7.152124 
0.351248 49.607883 -0.464545 -10.678464 5.107464 8.658097 5.019107 -0.166015 0.146484 19.146826 -0.535199 -4.834229 38.337994 -0.761678 -0.595780 -23.927752 -4.060136 1.957902 -11.902376 -14.032825 -2.911235 -31.995939 12.443172 63.288963 -77.896843 -0.501873 1.990429 1.644208 -3.403038 -3.510995 10.323275 9.595205 -1.737464 41.990238 -34.690987 46.349148 83.334274 1.387566 -14.197425 -1.662539 3.382353 -3.511080 11.166940 15.521111 0.857236 8.697830 -8.153686 7.472859 0.850199 1.931388 -3.888228 21.648472 -12.039312 -0.719569 -10.157857 3.979372 -39.894932 1.059432 2.823953 -7.142477 
0.441891 49.630547 -0.492870 -10.501987 5.312624 9.161146 5.019107 -0.166015 0.146484 19.224895 -0.642183 -4.892927 38.330952 -0.878842 -0.693577 -23.343647 -3.893589 2.211881 -11.140279 -13.829528 -2.678196 -32.046757 12.319727 60.975605 -75.432022 -0.518934 1.593849 1.644208 -3.403038 -3.510995 10.360088 9.364749 -1.705544 42.769955 -35.471050 43.308071 80.235191 1.400075 -14.484736 -1.662539 3.382353 -3.511080 10.575438 16.140131 0.906441 9.841476 -8.571834 6.771852 0.629132 1.918566 -3.892003 21.674616 -12.242105 -0.754360 -10.247862 3.931372 -40.404209 1.121326 2.803350 -7.149936 
0.532540 49.653206 -0.521191 -10.331599 5.516783 9.665228 5.019107 -0.166015 0.146484 19.313793 -0.758876 -4.951642 38.334202 -1.005764 -0.791237 -22.748297 -3.727023 2.465887 -10.382044 -13.618665 -2.455354 -32.082088 12.196749 58.659851 -72.968849 -0.552814 1.199584 1.644208 -3.403038 -3.510995 10.406910 9.134053 -1.675218 43.612423 -36.217945 40.214806 77.130959 1.411662 -14.773165 -1.662539 3.382353 -3.511080 9.965746 16.749668 0.928707 11.011160 -8.979836 6.098737 0.401264 1.909771 -3.894528 21.713560 -12.438004 -0.757309 -10.340155 3.869650 -40.951202 1.162083 2.781995 -7.147304 
0.662839 49.647541 -0.504196 -10.279261 5.521038 9.988773 5.019107 -0.166015 0.146484 19.303560 -0.768718 -4.853996 38.354980 -1.044812 -0.830296 -22.162054 -3.551085 2.582850 -9.462871 -13.546729 -2.220526 -32.102825 12.024814 56.016495 -69.897057 -0.579965 0.694902 1.644208 -3.403038 -3.510995 10.311653 9.044218 -1.645663 44.107662 -36.590347 37.111942 73.157310 1.431369 -15.055374 -1.662539 3.382353 -3.511080 10.028261 17.399229 0.974326 11.145186 -8.849845 7.825281 0.736308 1.915744 -3.893473 21.884676 -12.538215 -0.769470 -10.501324 3.842455 -41.330898 1.238159 2.811073 -7.147226 
0.793147 49.641869 -0.487196 -10.225898 5.524928 10.322035 5.019107 -0.166015 0.146484 19.293968 -0.788303 -4.746584 38.375778 -1.093627 -0.859591 -21.565788 -3.384919 2.699833 -8.556145 -13.465901 -1.997987 -32.117508 11.849606 53.371784 -66.834564 -0.634462 0.192176 1.644208 -3.403038 -3.510995 10.214700 8.946261 -1.606605 44.629250 -36.938084 33.986561 69.176521 1.450310 -15.346040 -1.662539 3.382353 -3.511080 10.095627 18.042301 1.011799 11.293435 -8.734575 9.550304 1.071091 1.952197 -3.902064 22.047739 -12.633897 -0.802222 -10.671368 3.813063 -41.681858 1.341825 2.831021 -7.119429 
0.974432 49.613548 -0.436209 -10.257549 5.434196 10.565951 5.019107 -0.166015 0.146484 19.181147 -0.759348 -4.521993 38.392490 -0.996001 -0.781471 -20.960094 -3.268068 2.621279 -7.769206 -13.457659 -1.811256 -32.053215 11.766553 50.599403 -63.327869 -0.671798 -0.403326 1.644208 -3.403038 -3.510995 9.954485 8.940521 -1.569818 44.882721 -36.925827 30.744724 64.286720 1.479821 -15.626039 -1.662539 3.382353 -3.511080 10.747958 18.586153 1.060338 10.396311 -8.149322 13.068424 1.755729 1.918805 -3.875366 22.324438 -12.724164 -0.769340 -10.865959 3.811598 -41.998104 1.365028 2.802017 -7.129839 
1.155726 49.585217 -0.385219 -10.290884 5.333739 10.819605 5.019107 -0.166015 0.146484 19.069157 -0.740111 -4.287508 38.399700 -0.898370 -0.703345 -20.355696 -3.160929 2.552486 -6.992230 -13.454041 -1.625828 -31.978659 11.677127 47.824879 -59.832600 -0.747213 -0.996884 1.644208 -3.403038 -3.510995 9.692492 8.926324 -1.521913 45.137024 -36.903030 27.497305 59.393719 1.529574 -15.905543 -1.662539 3.382353 -3.511080 11.392246 19.143137 1.096587 9.530290 -7.518311 16.579985 2.423418 1.919199 -3.867665 22.622519 -12.819327 -0.776720 -11.049802 3.812805 -42.304062 1.424341 2.811579 -7.147194 
